<?xml version="1.0" encoding="utf-8"?>
<!-- Generator: Adobe Illustrator 25.4.1, SVG Export Plug-In . SVG Version: 6.00 Build 0)  -->
<svg version="1.1" id="Capa_1" xmlns="http://www.w3.org/2000/svg" xmlns:xlink="http://www.w3.org/1999/xlink" x="0px" y="0px"
	 viewBox="0 0 201.1 196.9" style="enable-background:new 0 0 201.1 196.9;" xml:space="preserve">
<path d="M198.7,35.7c-1.5-1-3.3-1.1-4.9-0.4l-47.7,20.6V22.7c0-1.8-0.9-3.4-2.4-4.4c-1.5-1-3.3-1.1-4.9-0.4L91.1,38.5V5.2
	c0-1.8-0.9-3.4-2.4-4.4c-1.5-1-3.3-1.1-4.9-0.4L3.2,35.3C1.2,36.1,0,38,0,40.1v116.7c0,1.8,0.9,3.4,2.4,4.4c0.9,0.6,1.9,0.9,2.9,0.9
	c0.7,0,1.4-0.1,2.1-0.4L55,141v33.2c0,1.8,0.9,3.4,2.4,4.4c0.9,0.6,1.9,0.9,2.9,0.9c0.7,0,1.4-0.1,2.1-0.4l47.7-20.6v33.2
	c0,1.8,0.9,3.4,2.4,4.4c0.9,0.6,1.9,0.9,2.9,0.9c0.7,0,1.4-0.1,2.1-0.4l80.7-34.9c1.9-0.8,3.2-2.7,3.2-4.8V40.1
	C201.1,38.4,200.2,36.7,198.7,35.7z M190.6,153.4l-70.2,30.4v-29.8l22.6-9.8c1.9-0.8,3.2-2.7,3.2-4.8V78.7l-10.5,4.5v52.7l-15.2,6.6
	l-10.5,4.5l-44.5,19.2v-29.8l22.6-9.8c1.9-0.8,3.2-2.7,3.2-4.8V61.3l-10.5,4.5v52.7l-15.2,6.6L55,129.6l-44.5,19.2V43.6l70.2-30.4
	V43l-22.6,9.8c-1.9,0.8-3.2,2.7-3.2,4.8v60.6l10.5-4.5V61l15.2-6.6l10.5-4.5l44.5-19.2v29.8l-22.6,9.8c-1.9,0.8-3.2,2.7-3.2,4.8
	v60.6l10.5-4.5V78.4l15.2-6.6l10.5-4.5l44.5-19.2V153.4z"/>
</svg>
