<svg width="20" height="20" viewBox="0 0 20 20" fill="none" xmlns="http://www.w3.org/2000/svg">
<rect width="20" height="20" rx="4" fill="#D3FCD2"/>
<g clip-path="url(#clip0_1414_2382)">
<path d="M15.0287 14.8468H6.98669C6.87546 14.8468 6.76782 14.8075 6.68278 14.7358L4.95265 13.2772C4.91441 13.245 4.86601 13.2273 4.81599 13.2273C4.3763 13.2273 4.17588 13.7759 4.51205 14.0593L6.68278 15.8892C6.76781 15.9609 6.87544 16.0002 6.98666 16.0002H15.1836C15.6233 16.0002 15.8237 15.4517 15.4875 15.1683L15.1653 14.8967C15.1271 14.8645 15.0787 14.8468 15.0287 14.8468Z" fill="#004235"/>
<path d="M15.4875 8.24752L15.1654 7.97599C15.1271 7.94376 15.0787 7.92608 15.0287 7.92608H6.98672C6.87549 7.92608 6.76785 7.88676 6.68281 7.81507L4.95269 6.35647C4.91445 6.32423 4.86604 6.30655 4.81602 6.30655C4.37634 6.30655 4.1759 6.85511 4.51205 7.13848L6.81457 9.07948L9.41959 11.2752C9.50468 11.3469 9.61239 11.3863 9.72369 11.3863H12.3211C12.3711 11.3863 12.4195 11.404 12.4577 11.4362L12.7799 11.7078C13.116 11.9911 12.9156 12.5397 12.4759 12.5397H9.72369C9.61239 12.5397 9.50467 12.5004 9.41959 12.4286L7.68949 10.9701C7.65125 10.9379 7.60285 10.9202 7.55283 10.9202H4.81596C4.37628 10.9202 4.1759 11.4687 4.51205 11.7521L6.68281 13.582C6.76785 13.6537 6.87549 13.693 6.98672 13.693H15.1837C15.6233 13.693 15.8237 13.1445 15.4876 12.8612L13.2576 10.9813C13.2574 10.981 13.2568 10.9809 13.2563 10.9806L12.4286 10.2828C12.3903 10.2506 12.3419 10.2329 12.2919 10.2329H9.72369C9.61239 10.2329 9.50468 10.1935 9.41959 10.1218L8.62677 9.45355C8.47562 9.32614 8.56574 9.07948 8.76344 9.07948H15.1836C15.6233 9.07948 15.8237 8.53089 15.4875 8.24752Z" fill="#004235"/>
<path d="M6.68283 6.66195C6.76786 6.73363 6.87549 6.77295 6.98671 6.77295H15.1837C15.6234 6.77295 15.8238 6.2244 15.4876 5.94102L13.3168 4.11102C13.2318 4.03934 13.1242 4.00002 13.0129 4.00002H4.81598C4.3763 4.00002 4.17589 4.54857 4.51203 4.83194L6.68283 6.66195Z" fill="#004235"/>
</g>
<defs>
<clipPath id="clip0_1414_2382">
<rect width="12" height="12" fill="white" transform="translate(4 4)"/>
</clipPath>
</defs>
</svg>
