<svg viewBox="0 0 20 20" fill="none" xmlns="http://www.w3.org/2000/svg"><g clip-path="url(#clip0_924_79)"><g clip-path="url(#clip1_924_79)"><circle cx="9.75" cy="10" r="9.75" fill="#0E193D"/><path d="M4 13.5L5.27968 4H10.5L10.2516 5.81372H6.83411L6.56688 7.84082H9.64939L9.40098 9.65454H6.31847L5.80284 13.5H4Z" fill="white"/><path d="M12.042 8L12.6821 9.84049L13.988 8H15.75L13.6863 10.75L14.8635 13.5H13.1125L12.3694 11.6559L11.0231 13.5H9.25L11.3725 10.75L10.269 8H12.042Z" fill="white"/><path d="M20 14.75L16.25 12.5849L16.25 16.9151L20 14.75ZM1.25 15.125L16.625 15.125L16.625 14.375L1.25 14.375L1.25 15.125Z" fill="#EE3133"/></g></g><defs><clipPath id="clip0_924_79"><rect width="20" height="20" fill="white"/></clipPath><clipPath id="clip1_924_79"><rect width="20" height="20" fill="white"/></clipPath></defs></svg>
